<?xml version="1.0" encoding="UTF-8" standalone="no"?>
<!DOCTYPE svg PUBLIC "-//W3C//DTD SVG 1.1//EN" "http://www.w3.org/Graphics/SVG/1.1/DTD/svg11.dtd">
<svg width="100%" height="100%" viewBox="0 0 80 80"
     version="1.1" xmlns="http://www.w3.org/2000/svg" xml:space="preserve"
     style="fill-rule:evenodd;clip-rule:evenodd;stroke-linejoin:round;stroke-miterlimit:2;">
    <g>
        <path d="M71.104,73.82L61.582,73.82L61.582,32.072C61.582,21.981 59.71,16.935 55.967,16.935C54.054,16.935 51.949,18.675 49.65,22.154C47.351,25.633 46.201,27.555 46.201,27.922L46.201,73.82L36.741,73.82L36.741,32.072C36.741,21.981 34.849,16.935 31.064,16.935C29.193,16.935 27.107,18.675 24.808,22.154C22.509,25.633 21.36,27.555 21.36,27.922L21.36,73.82L11.838,73.82L11.838,10.221L20.994,10.221L20.994,19.804C22.784,16.427 24.91,13.731 27.372,11.717C29.834,9.703 32.285,8.696 34.727,8.696C37.29,8.696 39.589,9.703 41.624,11.717C43.658,13.731 45.062,16.427 45.835,19.804C47.625,16.427 49.762,13.731 52.244,11.717C54.726,9.703 57.167,8.696 59.568,8.696C67.258,8.696 71.104,15.572 71.104,29.325L71.104,73.82Z"
              style="fill-rule:nonzero;"/>
        <path d="M68.162,71.304L58.64,71.304L58.64,29.556C58.64,19.465 56.768,14.42 53.025,14.42C51.112,14.42 49.007,16.159 46.708,19.638C44.409,23.117 43.259,25.04 43.259,25.406L43.259,71.304L33.799,71.304L33.799,29.556C33.799,19.465 31.907,14.42 28.123,14.42C26.251,14.42 24.165,16.159 21.866,19.638C19.567,23.117 18.418,25.04 18.418,25.406L18.418,71.304L8.896,71.304L8.896,7.706L18.052,7.706L18.052,17.288C19.842,13.911 21.968,11.215 24.43,9.201C26.892,7.187 29.343,6.18 31.785,6.18C34.348,6.18 36.647,7.187 38.682,9.201C40.716,11.215 42.12,13.911 42.893,17.288C44.683,13.911 46.82,11.215 49.302,9.201C51.784,7.187 54.225,6.18 56.626,6.18C64.316,6.18 68.162,13.057 68.162,26.81L68.162,71.304Z"
              style="fill:#aab1f9;fill-rule:nonzero;"/>
    </g>
</svg>
