<?xml version="1.0" encoding="UTF-8" standalone="no"?>
<!DOCTYPE svg PUBLIC "-//W3C//DTD SVG 1.1//EN" "http://www.w3.org/Graphics/SVG/1.1/DTD/svg11.dtd">
<svg width="100%" height="100%" viewBox="0 0 80 80"
     version="1.1" xmlns="http://www.w3.org/2000/svg" xml:space="preserve"
     style="fill-rule:evenodd;clip-rule:evenodd;stroke-linejoin:round;stroke-miterlimit:2;">
    <g transform="matrix(1,0,0,1,-0.882696,0.494726)">
        <g transform="matrix(1,0,0,1,-2.87853,-22.3712)">
            <path d="M74.865,95.697L65.343,95.697L65.343,53.949C65.343,43.857 63.472,38.812 59.728,38.812C57.816,38.812 55.71,40.551 53.411,44.03C51.112,47.509 49.962,49.432 49.962,49.798L49.962,95.697L40.502,95.697L40.502,53.949C40.502,43.857 38.61,38.812 34.826,38.812C32.954,38.812 30.869,40.551 28.57,44.03C26.271,47.509 25.121,49.432 25.121,49.798L25.121,95.697L15.6,95.697L15.6,32.098L24.755,32.098L24.755,41.68C26.545,38.303 28.671,35.607 31.133,33.593C33.595,31.579 36.046,30.572 38.488,30.572C41.051,30.572 43.35,31.579 45.385,33.593C47.419,35.607 48.823,38.303 49.596,41.68C51.387,38.303 53.523,35.607 56.005,33.593C58.487,31.579 60.928,30.572 63.329,30.572C71.02,30.572 74.865,37.449 74.865,51.202L74.865,95.697Z"
                  style="fill-rule:nonzero;"/>
        </g>
        <g transform="matrix(1,0,0,1,-5.82041,-24.8869)">
            <path d="M74.865,95.697L65.343,95.697L65.343,53.949C65.343,43.857 63.472,38.812 59.728,38.812C57.816,38.812 55.71,40.551 53.411,44.03C51.112,47.509 49.962,49.432 49.962,49.798L49.962,95.697L40.502,95.697L40.502,53.949C40.502,43.857 38.61,38.812 34.826,38.812C32.954,38.812 30.869,40.551 28.57,44.03C26.271,47.509 25.121,49.432 25.121,49.798L25.121,95.697L15.6,95.697L15.6,32.098L24.755,32.098L24.755,41.68C26.545,38.303 28.671,35.607 31.133,33.593C33.595,31.579 36.046,30.572 38.488,30.572C41.051,30.572 43.35,31.579 45.385,33.593C47.419,35.607 48.823,38.303 49.596,41.68C51.387,38.303 53.523,35.607 56.005,33.593C58.487,31.579 60.928,30.572 63.329,30.572C71.02,30.572 74.865,37.449 74.865,51.202L74.865,95.697Z"
                  style="fill:rgb(58,80,172);fill-rule:nonzero;"/>
        </g>
    </g>
</svg>
