<?xml version="1.0" encoding="UTF-8" standalone="no"?>
<!DOCTYPE svg PUBLIC "-//W3C//DTD SVG 1.1//EN" "http://www.w3.org/Graphics/SVG/1.1/DTD/svg11.dtd">
<svg width="100%" height="100%" viewBox="0 0 16 16"
     version="1.1" xmlns="http://www.w3.org/2000/svg" xml:space="preserve"
     style="fill-rule:evenodd;clip-rule:evenodd;">
    <path d="M13.5,4L13.5,12C13.5,12.828 12.828,13.5 12,13.5L4,13.5C3.172,13.5 2.5,12.828 2.5,12L2.5,4C2.5,3.172 3.172,2.5 4,2.5L12,2.5C12.828,2.5 13.5,3.172 13.5,4Z"
          style="fill:rgb(251,251,254);stroke:rgb(58,80,172);stroke-width:1px;"/>
    <g transform="matrix(0.12802,0,0,0.26946,2.55958,-1.79831)">
        <path d="M15.1,51.549L15.1,21.719L24.004,21.719L24.004,25.679L24.232,25.679C24.613,24.341 25.735,23.256 27.6,22.424C29.464,21.593 31.842,21.177 34.734,21.177C37.474,21.177 39.795,21.557 41.698,22.316C43.6,23.075 44.97,24.106 45.807,25.407L45.921,25.407C46.454,24.106 47.653,23.075 49.517,22.316C51.382,21.557 53.76,21.177 56.652,21.177C60.686,21.177 63.901,21.891 66.298,23.319C68.695,24.748 69.894,26.601 69.894,28.878L69.894,51.549L60.305,51.549L60.305,28.824C60.305,27.631 59.696,26.682 58.479,25.977C57.261,25.272 55.587,24.919 53.456,24.919C51.401,24.919 49.765,25.263 48.547,25.95C47.329,26.637 46.721,27.577 46.721,28.77L46.721,51.549L38.273,51.549L38.273,28.824C38.273,27.631 37.664,26.682 36.447,25.977C35.229,25.272 33.593,24.919 31.538,24.919C29.407,24.919 27.733,25.263 26.515,25.95C25.297,26.637 24.689,27.577 24.689,28.77L24.689,51.549L15.1,51.549Z"
              style="fill:rgb(58,80,172);fill-rule:nonzero;"/>
    </g>
</svg>
